<svg width="24" height="25" viewBox="0 0 24 25" fill="none" xmlns="http://www.w3.org/2000/svg">
<path d="M14.8559 17.5817C16.7504 17.357 18.5773 16.9116 20.3102 16.2719C18.8734 14.677 17.9988 12.5656 17.9988 10.25V9.54919C17.999 9.53281 17.999 9.51641 17.999 9.5C17.999 6.18629 15.3127 3.5 11.999 3.5C8.68531 3.5 5.99902 6.18629 5.99902 9.5L5.99883 10.25C5.99883 12.5656 5.1243 14.677 3.6875 16.2719C5.42043 16.9116 7.24746 17.357 9.14216 17.5818M14.8559 17.5817C13.919 17.6928 12.9656 17.75 11.9988 17.75C11.0322 17.75 10.0789 17.6929 9.14216 17.5818M14.8559 17.5817C14.9488 17.8711 14.999 18.1797 14.999 18.5C14.999 20.1569 13.6559 21.5 11.999 21.5C10.3422 21.5 8.99902 20.1569 8.99902 18.5C8.99902 18.1797 9.04921 17.8712 9.14216 17.5818" stroke="#111827" stroke-width="1.5" stroke-linecap="round" stroke-linejoin="round"/>
</svg>
