<svg width="24" height="25" viewBox="0 0 24 25" fill="none" xmlns="http://www.w3.org/2000/svg">
<g id="heroicons-outline/chat-bubble-oval-left-ellipsis">
<path id="Vector" d="M8.625 12.5C8.625 12.7071 8.45711 12.875 8.25 12.875C8.04289 12.875 7.875 12.7071 7.875 12.5C7.875 12.2929 8.04289 12.125 8.25 12.125C8.45711 12.125 8.625 12.2929 8.625 12.5ZM8.625 12.5H8.25M12.375 12.5C12.375 12.7071 12.2071 12.875 12 12.875C11.7929 12.875 11.625 12.7071 11.625 12.5C11.625 12.2929 11.7929 12.125 12 12.125C12.2071 12.125 12.375 12.2929 12.375 12.5ZM12.375 12.5H12M16.125 12.5C16.125 12.7071 15.9571 12.875 15.75 12.875C15.5429 12.875 15.375 12.7071 15.375 12.5C15.375 12.2929 15.5429 12.125 15.75 12.125C15.9571 12.125 16.125 12.2929 16.125 12.5ZM16.125 12.5H15.75M21 12.5C21 17.0563 16.9706 20.75 12 20.75C11.1125 20.75 10.2551 20.6323 9.44517 20.4129C8.47016 21.0979 7.28201 21.5 6 21.5C5.80078 21.5 5.60376 21.4903 5.40967 21.4713C5.25 21.4558 5.0918 21.4339 4.93579 21.406C5.41932 20.8353 5.76277 20.1427 5.91389 19.3808C6.00454 18.9238 5.7807 18.4799 5.44684 18.1549C3.9297 16.6782 3 14.6886 3 12.5C3 7.94365 7.02944 4.25 12 4.25C16.9706 4.25 21 7.94365 21 12.5Z" stroke="#111827" stroke-width="1.5" stroke-linecap="round" stroke-linejoin="round"/>
</g>
</svg>
