<svg width="16" height="16" viewBox="0 0 16 16" fill="none" xmlns="http://www.w3.org/2000/svg">
<g id="heroicons-outline/chat-bubble-left-ellipsis">
<path id="Vector" d="M5.75 6.5C5.75 6.63807 5.63807 6.75 5.5 6.75C5.36193 6.75 5.25 6.63807 5.25 6.5C5.25 6.36193 5.36193 6.25 5.5 6.25C5.63807 6.25 5.75 6.36193 5.75 6.5ZM5.75 6.5H5.5M8.25 6.5C8.25 6.63807 8.13807 6.75 8 6.75C7.86193 6.75 7.75 6.63807 7.75 6.5C7.75 6.36193 7.86193 6.25 8 6.25C8.13807 6.25 8.25 6.36193 8.25 6.5ZM8.25 6.5H8M10.75 6.5C10.75 6.63807 10.6381 6.75 10.5 6.75C10.3619 6.75 10.25 6.63807 10.25 6.5C10.25 6.36193 10.3619 6.25 10.5 6.25C10.6381 6.25 10.75 6.36193 10.75 6.5ZM10.75 6.5H10.5M1.5 8.50623C1.5 9.57362 2.24894 10.5027 3.30497 10.658C4.02905 10.7644 4.761 10.8467 5.5 10.9038V14L8.28899 11.211C8.42681 11.0732 8.61289 10.9948 8.80774 10.99C10.1248 10.9574 11.4221 10.8452 12.695 10.6581C13.751 10.5028 14.5 9.5737 14.5 8.5063V4.4937C14.5 3.42631 13.751 2.49722 12.695 2.34196C11.1627 2.11668 9.59507 2 8.00019 2C6.40517 2 4.83741 2.1167 3.30498 2.34202C2.24894 2.49729 1.5 3.42637 1.5 4.49376V8.50623Z" stroke="#111827" stroke-width="1.5" stroke-linecap="round" stroke-linejoin="round"/>
</g>
</svg>
