<svg width="16" height="16" viewBox="0 0 16 16" fill="none" xmlns="http://www.w3.org/2000/svg">
<g id="heroicons-outline/cog-6-tooth">
<g id="Vector">
<path d="M6.39617 2.62675C6.45645 2.26511 6.76934 2.00005 7.13597 2.00005H8.86528C9.23191 2.00005 9.5448 2.26511 9.60507 2.62675L9.74741 3.48079C9.78897 3.73015 9.95562 3.93786 10.1768 4.06029C10.2262 4.08767 10.2751 4.11594 10.3234 4.1451C10.5401 4.27595 10.8037 4.31663 11.0407 4.22782L11.8519 3.9239C12.1953 3.79528 12.5813 3.93373 12.7646 4.25124L13.6292 5.74886C13.8126 6.06637 13.7395 6.46987 13.4564 6.70289L12.7868 7.2541C12.5918 7.41464 12.4952 7.66253 12.4998 7.91507C12.5004 7.94334 12.5006 7.97166 12.5006 8.00005C12.5006 8.02844 12.5004 8.05676 12.4998 8.08502C12.4952 8.33756 12.5918 8.58546 12.7868 8.74599L13.4564 9.2972C13.7395 9.53022 13.8126 9.93373 13.6292 10.2512L12.7646 11.7489C12.5813 12.0664 12.1953 12.2048 11.8519 12.0762L11.0407 11.7723C10.8037 11.6835 10.5401 11.7242 10.3234 11.855C10.2751 11.8842 10.2263 11.9124 10.1768 11.9398C9.95562 12.0622 9.78897 12.27 9.74741 12.5193L9.60507 13.3734C9.5448 13.735 9.23191 14.0001 8.86528 14.0001H7.13597C6.76934 14.0001 6.45645 13.735 6.39617 13.3734L6.25383 12.5193C6.21227 12.27 6.04563 12.0622 5.82445 11.9398C5.775 11.9124 5.72612 11.8842 5.67783 11.855C5.46114 11.7242 5.19759 11.6835 4.96054 11.7723L4.1493 12.0762C3.80597 12.2048 3.41998 12.0664 3.23666 11.7489L2.37201 10.2512C2.18869 9.93374 2.26179 9.53023 2.54485 9.29721L3.21442 8.746C3.40942 8.58547 3.50609 8.33757 3.50141 8.08503C3.50089 8.05677 3.50062 8.02844 3.50062 8.00005C3.50062 7.97167 3.50089 7.94334 3.50141 7.91508C3.50609 7.66254 3.40942 7.41465 3.21442 7.25411L2.54485 6.7029C2.26179 6.46988 2.18869 6.06638 2.37201 5.74887L3.23666 4.25125C3.41998 3.93374 3.80597 3.79529 4.1493 3.92391L4.96053 4.22783C5.19758 4.31664 5.46113 4.27595 5.67782 4.14511C5.72611 4.11595 5.77499 4.08767 5.82445 4.06029C6.04563 3.93786 6.21227 3.73015 6.25383 3.48079L6.39617 2.62675Z" stroke="#111827" stroke-width="1.5" stroke-linecap="round" stroke-linejoin="round"/>
<path d="M10.0005 8C10.0005 9.10457 9.10504 10 8.00047 10C6.8959 10 6.00047 9.10457 6.00047 8C6.00047 6.89543 6.8959 6 8.00047 6C9.10504 6 10.0005 6.89543 10.0005 8Z" stroke="#111827" stroke-width="1.5" stroke-linecap="round" stroke-linejoin="round"/>
</g>
</g>
</svg>
