<svg width="14" height="15" viewBox="0 0 14 15" fill="none" xmlns="http://www.w3.org/2000/svg">
<g id="info-circle">
<g id="Vector">
<path d="M7 13.625C3.61726 13.625 0.875 10.8827 0.875 7.5C0.875 4.11726 3.61726 1.375 7 1.375C10.3827 1.375 13.125 4.11726 13.125 7.5C13.125 10.8827 10.3827 13.625 7 13.625ZM7 14.5C10.866 14.5 14 11.366 14 7.5C14 3.63401 10.866 0.5 7 0.5C3.13401 0.5 0 3.63401 0 7.5C0 11.366 3.13401 14.5 7 14.5Z" fill="#F43F5E"/>
<path d="M7.81437 6.2644L5.80973 6.51562L5.73795 6.84888L6.13272 6.92065C6.38907 6.98218 6.44034 7.07446 6.38395 7.33081L5.73795 10.366C5.56876 11.1504 5.83023 11.5195 6.44547 11.5195C6.92228 11.5195 7.47599 11.2991 7.72721 10.9966L7.80411 10.6326C7.6298 10.7864 7.37345 10.8479 7.20426 10.8479C6.96329 10.8479 6.87613 10.6787 6.93766 10.3813L7.81437 6.2644Z" fill="#F43F5E"/>
<path d="M7.875 4.4375C7.875 4.92075 7.48325 5.3125 7 5.3125C6.51675 5.3125 6.125 4.92075 6.125 4.4375C6.125 3.95425 6.51675 3.5625 7 3.5625C7.48325 3.5625 7.875 3.95425 7.875 4.4375Z" fill="#F43F5E"/>
</g>
</g>
</svg>
