<svg width="200" height="49" viewBox="0 0 200 49" fill="none" xmlns="http://www.w3.org/2000/svg">
<path d="M30.375 25.3203C30.4062 25.4766 30.3945 25.6484 30.3398 25.8359C30.2852 26.0234 30.1953 26.2344 30.0703 26.4688C29.9531 26.6953 29.793 26.9062 29.5898 27.1016C29.457 27.2266 29.3516 27.2891 29.2734 27.2891C29.2266 27.2891 29.1172 27.2227 28.9453 27.0898C28.7812 26.9492 28.6289 26.8242 28.4883 26.7148C28.3555 26.5977 28.2383 26.4922 28.1367 26.3984C28.043 26.3047 27.9961 26.2266 27.9961 26.1641C28.0977 25.9531 28.1719 25.793 28.2188 25.6836C28.375 25.332 28.5078 25.0547 28.6172 24.8516C28.7344 24.6484 28.9141 24.3477 29.1562 23.9492C29.2969 24.0664 29.4688 24.207 29.6719 24.3711C29.8828 24.5273 30.043 24.6758 30.1523 24.8164C30.2695 24.957 30.3438 25.125 30.375 25.3203ZM33.9141 24.1719C33.7734 26.625 33.0625 28.7344 31.7812 30.5C30.5156 32.2109 28.9961 33.0742 27.2227 33.0898C26.3008 33.0508 25.5703 32.7461 25.0312 32.1758C24.4922 31.6133 24.207 30.8281 24.1758 29.8203C24.168 28.2266 24.6914 26.4961 25.7461 24.6289C25.9492 24.2539 26.0703 24.1367 26.1094 24.2773C26.1484 24.4102 26.1445 24.5469 26.0977 24.6875C25.4023 26.0625 25.0469 27.25 25.0312 28.25C25.0625 29 25.3281 29.5703 25.8281 29.9609C26.3359 30.3516 27.0039 30.5625 27.832 30.5938C28.8477 30.5938 29.8242 30.3242 30.7617 29.7852C31.6914 29.168 32.3398 28.3438 32.707 27.3125C32.8477 26.9531 32.918 26.4766 32.918 25.8828C32.918 25.6562 32.9141 25.3711 32.9062 25.0273C32.9062 24.6758 32.9062 24.4258 32.9062 24.2773C32.9375 23.8477 33.0391 23.375 33.2109 22.8594C33.3828 22.3359 33.5234 21.957 33.6328 21.7227C33.75 21.4883 33.8477 21.3711 33.9258 21.3711C33.9805 21.3711 34.0039 21.4336 33.9961 21.5586C33.9883 21.6758 33.9766 21.9062 33.9609 22.25C33.9453 22.5938 33.9297 23.2344 33.9141 24.1719ZM36.7969 22.4023C36.7812 22.9648 36.7695 23.4727 36.7617 23.9258C36.7539 24.3789 36.7305 24.7617 36.6914 25.0742C36.6289 25.7461 36.5 26.3438 36.3047 26.8672C36.1094 27.3828 35.9531 27.7266 35.8359 27.8984C35.7266 28.0703 35.6367 28.1953 35.5664 28.2734C35.4805 28.3516 35.4141 28.3789 35.3672 28.3555C35.3203 28.3242 35.3047 28.2773 35.3203 28.2148C35.3203 28.1992 35.3672 27.9648 35.4609 27.5117C35.5547 27.0508 35.6133 26.6055 35.6367 26.1758C35.6602 25.7461 35.6641 25.1406 35.6484 24.3594C35.6328 23.5703 35.6523 22.9688 35.707 22.5547C35.7383 22.3125 35.7891 22.0625 35.8594 21.8047C35.9375 21.5469 36.0234 21.293 36.1172 21.043C36.2109 20.793 36.3086 20.5586 36.4102 20.3398C36.5195 20.1133 36.6172 19.9141 36.7031 19.7422C36.7734 19.6328 36.8359 19.5898 36.8906 19.6133C36.9453 19.6367 36.9688 19.6797 36.9609 19.7422C36.9453 19.8047 36.9258 19.9531 36.9023 20.1875C36.8867 20.4141 36.8711 20.6719 36.8555 20.9609C36.8398 21.2422 36.8242 21.5195 36.8086 21.793C36.8008 22.0664 36.7969 22.2695 36.7969 22.4023ZM44.332 21.7344C43.9414 23.125 43.5039 23.9414 43.0195 24.1836C42.3398 24.5117 41.9258 24.7305 41.7773 24.8398C41.6289 24.957 41.5312 25.0469 41.4844 25.1094C41.3281 25.3281 41.1758 25.6094 41.0273 25.9531C40.7695 26.6094 40.5625 27.1133 40.4062 27.4648C40.1484 28.0039 39.7656 28.3867 39.2578 28.6133C39.0156 28.707 38.6953 28.7891 38.2969 28.8594C37.8828 28.9453 37.5586 28.9883 37.3242 28.9883C37.1211 29.0117 36.9922 28.9648 36.9375 28.8477C36.9219 28.7773 37 28.6797 37.1719 28.5547C37.2344 28.5078 37.3672 28.4102 37.5703 28.2617C37.7734 28.1055 38.1367 27.8633 38.6602 27.5352C39.0664 27.2617 39.2578 27.1328 39.2344 27.1484C39.6875 26.8203 40 26.5391 40.1719 26.3047C40.2266 26.2344 40.4102 25.8438 40.7227 25.1328C41.043 24.4219 41.2852 23.9609 41.4492 23.75C41.6133 23.5312 41.8711 23.3086 42.2227 23.082C42.3555 23.0117 42.5859 22.8906 42.9141 22.7188C43.2031 22.5781 43.4062 22.457 43.5234 22.3555C43.6328 22.2617 43.7734 22.0586 43.9453 21.7461C44.1172 21.4414 44.2383 21.293 44.3086 21.3008C44.3789 21.3242 44.3867 21.4688 44.332 21.7344ZM40.2773 36.8984C40.2773 36.9453 40.3906 37.0625 40.6172 37.25C40.8516 37.4375 41.0234 37.5781 41.1328 37.6719C41.25 37.7734 41.3398 37.8242 41.4023 37.8242C41.6523 37.8242 41.9883 37.3984 42.4102 36.5469C42.582 36.6719 42.7812 36.8477 43.0078 37.0742C43.2344 37.3008 43.3906 37.4141 43.4766 37.4141C43.6094 37.4141 43.8164 37.2148 44.0977 36.8164C44.3867 36.4102 44.5312 36.0586 44.5312 35.7617C44.5156 35.5117 44.3711 35.2422 44.0977 34.9531C43.832 34.6719 43.6016 34.5312 43.4062 34.5312C43.3438 34.5312 43.2148 34.6914 43.0195 35.0117C42.832 35.332 42.6602 35.6211 42.5039 35.8789C42.3711 35.6914 42.1758 35.4727 41.918 35.2227C41.668 34.9805 41.4766 34.8867 41.3438 34.9414C41.2734 34.9414 41.0781 35.2422 40.7578 35.8438C40.4375 36.4453 40.2773 36.7969 40.2773 36.8984ZM46.4531 22.4023C46.4375 22.9648 46.4258 23.4727 46.418 23.9258C46.4102 24.3789 46.3867 24.7617 46.3477 25.0742C46.2852 25.7461 46.1562 26.3438 45.9609 26.8672C45.7656 27.3828 45.6094 27.7266 45.4922 27.8984C45.3828 28.0703 45.293 28.1953 45.2227 28.2734C45.1367 28.3516 45.0703 28.3789 45.0234 28.3555C44.9766 28.3242 44.9609 28.2773 44.9766 28.2148C44.9766 28.1992 45.0234 27.9648 45.1172 27.5117C45.2109 27.0508 45.2695 26.6055 45.293 26.1758C45.3164 25.7461 45.3203 25.1406 45.3047 24.3594C45.2891 23.5703 45.3086 22.9688 45.3633 22.5547C45.3945 22.3125 45.4453 22.0625 45.5156 21.8047C45.5938 21.5469 45.6797 21.293 45.7734 21.043C45.8672 20.793 45.9648 20.5586 46.0664 20.3398C46.1758 20.1133 46.2734 19.9141 46.3594 19.7422C46.4297 19.6328 46.4922 19.5898 46.5469 19.6133C46.6016 19.6367 46.625 19.6797 46.6172 19.7422C46.6016 19.8047 46.582 19.9531 46.5586 20.1875C46.543 20.4141 46.5273 20.6719 46.5117 20.9609C46.4961 21.2422 46.4805 21.5195 46.4648 21.793C46.457 22.0664 46.4531 22.2695 46.4531 22.4023ZM50.1914 22.168C50.2461 22.0039 50.3633 21.9766 50.543 22.0859C51.5508 22.6953 52.0547 23.5117 52.0547 24.5352C52.0156 25.3008 51.8516 25.9727 51.5625 26.5508C51.2812 27.1211 50.9922 27.5547 50.6953 27.8516C50.1875 28.3672 49.4531 28.7461 48.4922 28.9883C48.375 29.0117 48.2812 29.0234 48.2109 29.0234C48.1172 29.0234 48.0703 29 48.0703 28.9531C48.0703 28.8672 48.2109 28.7227 48.4922 28.5195C49.0547 28.1289 49.582 27.6836 50.0742 27.1836C50.5508 26.707 50.7891 26.3906 50.7891 26.2344C50.7891 25.8281 50.3438 25.2617 49.4531 24.5352C49.2891 24.4023 49.2383 24.2383 49.3008 24.043C49.5352 23.5898 49.832 22.9648 50.1914 22.168ZM57.0938 22.918C57.0859 23.1289 57.0039 23.5117 56.8477 24.0664C56.6992 24.6211 56.5 25.2266 56.25 25.8828C56.0078 26.5391 55.793 27.0352 55.6055 27.3711C55.418 27.707 55.2109 27.9648 54.9844 28.1445C54.7656 28.3164 54.4062 28.4766 53.9062 28.625C53.4141 28.7656 53.0156 28.8633 52.7109 28.918C52.4141 28.9648 52.2266 28.9883 52.1484 28.9883C52.0703 28.9805 52.0234 28.9492 52.0078 28.8945C51.9922 28.8398 52.0156 28.7695 52.0781 28.6836C52.1641 28.5508 52.3789 28.3789 52.7227 28.168C53.0742 27.9492 53.4805 27.6797 53.9414 27.3594C54.4023 27.0312 54.7305 26.7461 54.9258 26.5039C55.1211 26.2617 55.3398 25.8984 55.582 25.4141C55.832 24.9297 56.0547 24.4414 56.25 23.9492C56.4531 23.457 56.5977 23.1211 56.6836 22.9414C56.7695 22.7617 56.8633 22.6758 56.9648 22.6836C57.0508 22.6992 57.0938 22.7773 57.0938 22.918ZM60.4688 19.4023C60.4531 19.9648 60.4414 20.4727 60.4336 20.9258C60.4258 21.3789 60.4023 21.7617 60.3633 22.0742C60.3008 22.7461 60.1719 23.3438 59.9766 23.8672C59.7812 24.3828 59.625 24.7266 59.5078 24.8984C59.3984 25.0703 59.3086 25.1953 59.2383 25.2734C59.1523 25.3516 59.0859 25.3789 59.0391 25.3555C58.9922 25.3242 58.9766 25.2773 58.9922 25.2148C58.9922 25.1992 59.0391 24.9648 59.1328 24.5117C59.2266 24.0508 59.2852 23.6055 59.3086 23.1758C59.332 22.7461 59.3359 22.1406 59.3203 21.3594C59.3047 20.5703 59.3242 19.9688 59.3789 19.5547C59.4102 19.3125 59.4609 19.0625 59.5312 18.8047C59.6094 18.5469 59.6953 18.293 59.7891 18.043C59.8828 17.793 59.9805 17.5586 60.082 17.3398C60.1914 17.1133 60.2891 16.9141 60.375 16.7422C60.4453 16.6328 60.5078 16.5898 60.5625 16.6133C60.6172 16.6367 60.6406 16.6797 60.6328 16.7422C60.6172 16.8047 60.5977 16.9531 60.5742 17.1875C60.5586 17.4141 60.543 17.6719 60.5273 17.9609C60.5117 18.2422 60.4961 18.5195 60.4805 18.793C60.4727 19.0664 60.4688 19.2695 60.4688 19.4023ZM62.0039 28.1797C61.8398 28.3828 61.6992 28.5273 61.582 28.6133C61.4258 28.7227 61.2656 28.8125 61.1016 28.8828C60.9453 28.9453 60.7695 28.9961 60.5742 29.0352C60.3867 29.082 60.1992 29.1289 60.0117 29.1758L59.2383 29.3633C58.9258 29.418 58.7344 29.4258 58.6641 29.3867C58.6641 29.2773 58.793 29.1406 59.0508 28.9766C59.2852 28.8281 59.5234 28.6797 59.7656 28.5312C60.0078 28.375 60.25 28.2227 60.4922 28.0742C61.1094 27.6445 61.5703 27.2422 61.875 26.8672C62.1094 26.5781 62.293 26.3242 62.4258 26.1055C62.5117 25.9805 62.6406 25.7656 62.8125 25.4609L63.3164 24.4297C63.4336 24.1875 63.5469 23.9922 63.6562 23.8438C63.7578 23.6953 63.8516 23.625 63.9375 23.6328C64.0156 23.6719 64.0391 23.75 64.0078 23.8672C63.9219 24.125 63.8672 24.293 63.8438 24.3711C63.7188 24.7852 63.6562 25.0742 63.6562 25.2383C63.6094 25.3789 63.5781 25.4688 63.5625 25.5078C63.375 25.9297 63.1797 26.3281 62.9766 26.7031C62.9141 26.8516 62.5898 27.3438 62.0039 28.1797ZM62.4727 27.4883C62.418 27.4648 62.543 27.1133 62.8477 26.4336C63.1445 25.7539 63.4141 25.3477 63.6562 25.2148C63.6562 25.8086 63.75 26.2109 63.9375 26.4219C64.1172 26.6406 64.332 26.75 64.582 26.75C64.6836 26.75 64.7812 26.7188 64.875 26.6562C64.9531 26.5859 65.0586 26.4336 65.1914 26.1992C65.2539 26.0742 65.3242 26.0117 65.4023 26.0117C65.4648 26.0117 65.4961 26.0664 65.4961 26.1758C65.4805 26.3086 65.4297 26.5469 65.3438 26.8906C65.2344 27.2422 65.125 27.543 65.0156 27.793C64.875 28.1055 64.7305 28.3477 64.582 28.5195C64.3477 28.8398 64.0625 29 63.7266 29C63.3984 28.9922 63.125 28.832 62.9062 28.5195C62.6875 28.2383 62.543 27.8945 62.4727 27.4883ZM64.8867 17.9023C64.8867 17.7305 65.0312 17.3594 65.3203 16.7891C65.6172 16.2109 65.8086 15.9219 65.8945 15.9219C66.0664 15.8516 66.3164 15.9844 66.6445 16.3203C66.9727 16.6484 67.1484 16.9062 67.1719 17.0938C67.1719 17.3438 67.0352 17.7031 66.7617 18.1719C66.4883 18.6406 66.2891 18.875 66.1641 18.875C66.1172 18.8516 65.9531 18.75 65.6719 18.5703C65.3984 18.3828 65.1953 18.2422 65.0625 18.1484C64.9453 18.0703 64.8867 17.9883 64.8867 17.9023ZM67.7578 24.582C67.7422 24.8789 67.7109 25.1484 67.6641 25.3906C67.6172 25.625 67.5547 25.8281 67.4766 26C67.3984 26.1641 67.2969 26.2891 67.1719 26.375C67.0547 26.4531 66.9102 26.4805 66.7383 26.457C66.7461 25.8477 66.8086 25 66.9258 23.9141C67.0508 22.8203 67.2344 21.6133 67.4766 20.293C67.6016 19.9102 67.8555 19.2344 68.2383 18.2656C68.2773 18.1719 68.3164 18.1328 68.3555 18.1484C68.4023 18.1641 68.4258 18.2031 68.4258 18.2656C68.4023 18.7422 68.3047 19.6523 68.1328 20.9961C67.9609 22.3398 67.8555 23.2617 67.8164 23.7617C67.7773 24.2617 67.7578 24.5352 67.7578 24.582ZM71.8359 26.5508C71.6016 26.5117 71.4258 26.5117 71.3086 26.5508C70.9023 26.6836 70.4844 27.125 70.0547 27.875C69.5938 28.625 69.0781 29 68.5078 29C67.9297 28.9531 67.4922 28.6914 67.1953 28.2148C66.8984 27.7383 66.7461 27.1523 66.7383 26.457C66.8711 26.0039 67.0195 25.6133 67.1836 25.2852C67.3477 24.9492 67.5391 24.7188 67.7578 24.5938C67.7578 25.375 67.9492 25.9414 68.332 26.293C68.6211 26.5508 68.957 26.6797 69.3398 26.6797C69.8711 26.6797 70.3086 26.4453 70.6523 25.9766C70.9102 25.6328 71.1289 25.3867 71.3086 25.2383C71.4961 25.0898 71.6719 25.0156 71.8359 25.0156C71.8516 25.0469 71.8789 25.1602 71.918 25.3555C71.957 25.543 71.9766 25.7109 71.9766 25.8594C71.9766 26.0156 71.9609 26.1445 71.9297 26.2461C71.9062 26.3398 71.875 26.4414 71.8359 26.5508ZM67.7109 16.1797C67.7109 16.0781 67.8711 15.7266 68.1914 15.125C68.5117 14.5234 68.707 14.2227 68.7773 14.2227C68.9102 14.168 69.1016 14.2656 69.3516 14.5156C69.6094 14.7578 69.8047 14.9727 69.9375 15.1602C70.0938 14.9023 70.2656 14.6133 70.4531 14.293C70.6484 13.9727 70.7773 13.8125 70.8398 13.8125C71.0352 13.8125 71.2656 13.957 71.5312 14.2461C71.8047 14.5273 71.9492 14.793 71.9648 15.043C71.9648 15.3398 71.8203 15.6914 71.5312 16.0977C71.25 16.4961 71.043 16.6953 70.9102 16.6953C70.8242 16.6953 70.668 16.582 70.4414 16.3555C70.2148 16.1289 70.0156 15.9531 69.8438 15.8281C69.4219 16.6797 69.0859 17.1055 68.8359 17.1055C68.7734 17.1055 68.6836 17.0547 68.5664 16.9531C68.457 16.8594 68.2852 16.7188 68.0508 16.5312C67.8242 16.3438 67.7109 16.2266 67.7109 16.1797ZM72.2461 25.5352C72.3711 25.5742 72.5039 25.5469 72.6445 25.4531C72.793 25.3594 72.9961 25.0938 73.2539 24.6562C73.3867 24.7344 73.4727 24.7812 73.5117 24.7969C73.7539 24.8828 73.9766 24.5977 74.1797 23.9414C74.2109 23.9336 74.2852 23.9492 74.4023 23.9883C74.5273 24.0273 74.6289 23.9883 74.707 23.8711C74.793 23.7617 74.8789 23.5938 74.9648 23.3672C75.0586 23.1328 75.1172 23.0156 75.1406 23.0156C75.1953 23.0078 75.2305 23.0391 75.2461 23.1094C75.2617 23.1797 75.2578 23.2617 75.2344 23.3555C75.1719 23.6992 75.0625 24.0469 74.9062 24.3984C74.7734 24.7188 74.6094 24.9609 74.4141 25.125C74.2266 25.2891 74.0508 25.4531 73.8867 25.6172C73.7148 25.7891 73.5586 25.8984 73.418 25.9453C73.2539 26.0078 73.1016 26.0664 72.9609 26.1211C72.3906 26.7227 72.0156 27.0156 71.8359 27C71.8125 26.9375 71.7852 26.8438 71.7539 26.7188C71.7227 26.5938 71.7031 26.4609 71.6953 26.3203C71.6797 26.1719 71.6836 26.0234 71.707 25.875C71.7227 25.7188 71.7656 25.582 71.8359 25.4648L72.2461 25.5352ZM77.9062 22.4023C77.8906 22.9648 77.8789 23.4727 77.8711 23.9258C77.8633 24.3789 77.8398 24.7617 77.8008 25.0742C77.7383 25.7461 77.6094 26.3438 77.4141 26.8672C77.2188 27.3828 77.0625 27.7266 76.9453 27.8984C76.8359 28.0703 76.7461 28.1953 76.6758 28.2734C76.5898 28.3516 76.5234 28.3789 76.4766 28.3555C76.4297 28.3242 76.4141 28.2773 76.4297 28.2148C76.4297 28.1992 76.4766 27.9648 76.5703 27.5117C76.6641 27.0508 76.7227 26.6055 76.7461 26.1758C76.7695 25.7461 76.7734 25.1406 76.7578 24.3594C76.7422 23.5703 76.7617 22.9688 76.8164 22.5547C76.8477 22.3125 76.8984 22.0625 76.9688 21.8047C77.0469 21.5469 77.1328 21.293 77.2266 21.043C77.3203 20.793 77.418 20.5586 77.5195 20.3398C77.6289 20.1133 77.7266 19.9141 77.8125 19.7422C77.8828 19.6328 77.9453 19.5898 78 19.6133C78.0547 19.6367 78.0781 19.6797 78.0703 19.7422C78.0547 19.8047 78.0352 19.9531 78.0117 20.1875C77.9961 20.4141 77.9805 20.6719 77.9648 20.9609C77.9492 21.2422 77.9336 21.5195 77.918 21.793C77.9102 22.0664 77.9062 22.2695 77.9062 22.4023ZM87.3281 27.3828C87.3281 27.25 87.0469 27.0547 86.4844 26.7969C85.9141 26.5312 85.6289 26.207 85.6289 25.8242C85.6289 25.5508 85.6875 25.2422 85.8047 24.8984C85.9297 24.5469 86.0781 24.2148 86.25 23.9023C86.2812 23.8477 86.3281 23.8086 86.3906 23.7852C86.4609 23.7617 86.5273 23.75 86.5898 23.75C86.6602 23.75 86.7227 23.7617 86.7773 23.7852C86.832 23.8086 86.8633 23.8477 86.8711 23.9023C86.8711 24.0117 86.957 24.1211 87.1289 24.2305C87.3086 24.3398 87.4883 24.4609 87.668 24.5938C87.8477 24.7188 87.9766 24.8633 88.0547 25.0273C88.1328 25.207 88.1719 25.4727 88.1719 25.8242C88.1719 26.3398 88.1055 26.8672 87.9727 27.4062C87.8398 27.9297 87.5938 28.5781 87.2344 29.3516C86.6641 30.5469 85.8906 31.5 84.9141 32.2109C84.5547 32.4375 84.2031 32.6094 83.8594 32.7266C83.4844 32.8516 83.082 32.9141 82.6523 32.9141C81.6445 32.9141 80.8711 32.5391 80.332 31.7891C79.8711 31.1484 79.6406 30.3281 79.6406 29.3281C79.6406 28.8828 79.7344 28.3008 79.9219 27.582C80.1094 26.8867 80.3047 26.2852 80.5078 25.7773C80.7266 25.2539 80.9141 24.8125 81.0703 24.4531C81.1172 24.3672 81.1836 24.2383 81.2695 24.0664C81.3555 23.8867 81.4648 23.6562 81.5977 23.375C81.6914 23.2031 81.7734 23.0469 81.8438 22.9062C81.9219 22.7656 81.9844 22.6406 82.0312 22.5312C82.1484 22.3203 82.2383 22.2188 82.3008 22.2266C82.3867 22.2422 82.4102 22.332 82.3711 22.4961C82.332 22.6914 82.2812 22.8594 82.2188 23C81.6641 24.2812 81.2812 25.1758 81.0703 25.6836C80.7031 26.6133 80.5195 27.332 80.5195 27.8398C80.5195 28.8008 80.8164 29.4883 81.4102 29.9023C81.8477 30.1914 82.4141 30.3359 83.1094 30.3359C84.3594 30.3359 85.4062 29.9844 86.25 29.2812C86.9688 28.6797 87.3281 28.0469 87.3281 27.3828ZM88.3125 19.6055L88.1016 20.9883C88.0156 21.5586 87.9297 21.9883 87.8438 22.2773C87.7656 22.6133 87.6836 22.7812 87.5977 22.7812C87.5352 22.7812 87.4375 22.8945 87.3047 23.1211C87.0391 23.5664 86.8984 23.8594 86.8828 24C86.7969 24.0547 86.6992 24.082 86.5898 24.082C86.4805 24.0898 86.3711 24.0625 86.2617 24L86.5547 23.4492C86.8125 22.9648 86.9531 22.6953 86.9766 22.6406C87.1641 22.2812 87.2656 22.0156 87.2812 21.8438L87.3047 21.3164L87.3867 20.0742C87.4414 19.5664 87.5078 19.1289 87.5859 18.7617C87.6484 18.4414 87.7227 18.1055 87.8086 17.7539C87.9414 17.332 88.0391 17.043 88.1016 16.8867C88.2422 16.5508 88.4336 16.1758 88.6758 15.7617C88.7383 15.7148 88.7891 15.7031 88.8281 15.7266C88.875 15.75 88.8672 15.8945 88.8047 16.1602C88.75 16.4258 88.6992 16.6875 88.6523 16.9453C88.6133 17.1953 88.582 17.4062 88.5586 17.5781C88.3945 18.6328 88.3125 19.3086 88.3125 19.6055ZM88.3125 19.9922C88.3125 20.5078 88.418 20.8945 88.6289 21.1523C88.8242 21.418 89.0547 21.5508 89.3203 21.5508C89.3672 21.543 89.4453 21.3477 89.5547 20.9648C89.6719 20.5898 89.7695 20.3633 89.8477 20.2852C90.0352 20.2148 90.1914 20.2969 90.3164 20.5312C90.4336 20.7812 90.5 20.9844 90.5156 21.1406C90.5156 21.7266 90.3906 22.3047 90.1406 22.875C89.7891 23.625 89.3164 24 88.7227 24C88.3867 24 88.0977 23.8672 87.8555 23.6016C87.6133 23.3359 87.4609 23.043 87.3984 22.7227C87.3359 22.3867 87.3047 21.9648 87.3047 21.457C87.3047 21.2461 87.3398 21.0234 87.4102 20.7891C87.4727 20.5547 87.5547 20.3438 87.6562 20.1562C87.7578 19.9688 87.8711 19.8203 87.9961 19.7109C88.1133 19.6016 88.2188 19.5625 88.3125 19.5938V19.9922ZM97.9688 25.3203C98 25.4766 97.9883 25.6484 97.9336 25.8359C97.8789 26.0234 97.7891 26.2344 97.6641 26.4688C97.5469 26.6953 97.3867 26.9062 97.1836 27.1016C97.0508 27.2266 96.9453 27.2891 96.8672 27.2891C96.8203 27.2891 96.7109 27.2227 96.5391 27.0898C96.375 26.9492 96.2227 26.8242 96.082 26.7148C95.9492 26.5977 95.832 26.4922 95.7305 26.3984C95.6367 26.3047 95.5898 26.2266 95.5898 26.1641C95.6914 25.9531 95.7656 25.793 95.8125 25.6836C95.9688 25.332 96.1016 25.0547 96.2109 24.8516C96.3281 24.6484 96.5078 24.3477 96.75 23.9492C96.8906 24.0664 97.0625 24.207 97.2656 24.3711C97.4766 24.5273 97.6367 24.6758 97.7461 24.8164C97.8633 24.957 97.9375 25.125 97.9688 25.3203ZM101.508 24.1719C101.367 26.625 100.656 28.7344 99.375 30.5C98.1094 32.2109 96.5898 33.0742 94.8164 33.0898C93.8945 33.0508 93.1641 32.7461 92.625 32.1758C92.0859 31.6133 91.8008 30.8281 91.7695 29.8203C91.7617 28.2266 92.2852 26.4961 93.3398 24.6289C93.543 24.2539 93.6641 24.1367 93.7031 24.2773C93.7422 24.4102 93.7383 24.5469 93.6914 24.6875C92.9961 26.0625 92.6406 27.25 92.625 28.25C92.6562 29 92.9219 29.5703 93.4219 29.9609C93.9297 30.3516 94.5977 30.5625 95.4258 30.5938C96.4414 30.5938 97.418 30.3242 98.3555 29.7852C99.2852 29.168 99.9336 28.3438 100.301 27.3125C100.441 26.9531 100.512 26.4766 100.512 25.8828C100.512 25.6562 100.508 25.3711 100.5 25.0273C100.5 24.6758 100.5 24.4258 100.5 24.2773C100.531 23.8477 100.633 23.375 100.805 22.8594C100.977 22.3359 101.117 21.957 101.227 21.7227C101.344 21.4883 101.441 21.3711 101.52 21.3711C101.574 21.3711 101.598 21.4336 101.59 21.5586C101.582 21.6758 101.57 21.9062 101.555 22.25C101.539 22.5938 101.523 23.2344 101.508 24.1719ZM103.688 24.582C103.672 24.8789 103.641 25.1484 103.594 25.3906C103.547 25.625 103.484 25.8281 103.406 26C103.328 26.1641 103.227 26.2891 103.102 26.375C102.984 26.4531 102.84 26.4805 102.668 26.457C102.676 25.8477 102.738 25 102.855 23.9141C102.98 22.8203 103.164 21.6133 103.406 20.293C103.531 19.9102 103.785 19.2344 104.168 18.2656C104.207 18.1719 104.246 18.1328 104.285 18.1484C104.332 18.1641 104.355 18.2031 104.355 18.2656C104.332 18.7422 104.234 19.6523 104.062 20.9961C103.891 22.3398 103.785 23.2617 103.746 23.7617C103.707 24.2617 103.688 24.5352 103.688 24.582ZM103.688 24.9922C103.688 25.5078 103.793 25.8945 104.004 26.1523C104.199 26.418 104.43 26.5508 104.695 26.5508C104.742 26.543 104.82 26.3477 104.93 25.9648C105.047 25.5898 105.145 25.3633 105.223 25.2852C105.41 25.2148 105.566 25.2969 105.691 25.5312C105.809 25.7812 105.875 25.9844 105.891 26.1406C105.891 26.7266 105.766 27.3047 105.516 27.875C105.164 28.625 104.691 29 104.098 29C103.762 29 103.473 28.8672 103.23 28.6016C102.988 28.3359 102.836 28.043 102.773 27.7227C102.711 27.3867 102.68 26.9648 102.68 26.457C102.68 26.2461 102.715 26.0234 102.785 25.7891C102.848 25.5547 102.93 25.3438 103.031 25.1562C103.133 24.9688 103.246 24.8203 103.371 24.7109C103.488 24.6016 103.594 24.5625 103.688 24.5938V24.9922ZM110.988 22.918C110.98 23.1289 110.898 23.5117 110.742 24.0664C110.594 24.6211 110.395 25.2266 110.145 25.8828C109.902 26.5391 109.688 27.0352 109.5 27.3711C109.312 27.707 109.105 27.9648 108.879 28.1445C108.66 28.3164 108.301 28.4766 107.801 28.625C107.309 28.7656 106.91 28.8633 106.605 28.918C106.309 28.9648 106.121 28.9883 106.043 28.9883C105.965 28.9805 105.918 28.9492 105.902 28.8945C105.887 28.8398 105.91 28.7695 105.973 28.6836C106.059 28.5508 106.273 28.3789 106.617 28.168C106.969 27.9492 107.375 27.6797 107.836 27.3594C108.297 27.0312 108.625 26.7461 108.82 26.5039C109.016 26.2617 109.234 25.8984 109.477 25.4141C109.727 24.9297 109.949 24.4414 110.145 23.9492C110.348 23.457 110.492 23.1211 110.578 22.9414C110.664 22.7617 110.758 22.6758 110.859 22.6836C110.945 22.6992 110.988 22.7773 110.988 22.918ZM110.004 17.9375C110.004 17.7656 110.148 17.3945 110.438 16.8242C110.734 16.2461 110.926 15.957 111.012 15.957C111.184 15.8867 111.434 16.0195 111.762 16.3555C112.09 16.6836 112.266 16.9414 112.289 17.1289C112.289 17.3789 112.152 17.7383 111.879 18.207C111.605 18.6758 111.406 18.9102 111.281 18.9102C111.234 18.8867 111.07 18.7852 110.789 18.6055C110.516 18.418 110.312 18.2773 110.18 18.1836C110.062 18.1055 110.004 18.0234 110.004 17.9375ZM113.555 24.582C113.539 24.8789 113.508 25.1484 113.461 25.3906C113.414 25.625 113.352 25.8281 113.273 26C113.195 26.1641 113.094 26.2891 112.969 26.375C112.852 26.4531 112.707 26.4805 112.535 26.457C112.543 25.8477 112.605 25 112.723 23.9141C112.848 22.8203 113.031 21.6133 113.273 20.293C113.398 19.9102 113.652 19.2344 114.035 18.2656C114.074 18.1719 114.113 18.1328 114.152 18.1484C114.199 18.1641 114.223 18.2031 114.223 18.2656C114.199 18.7422 114.102 19.6523 113.93 20.9961C113.758 22.3398 113.652 23.2617 113.613 23.7617C113.574 24.2617 113.555 24.5352 113.555 24.582ZM113.555 24.5938C113.555 24.875 113.559 25.082 113.566 25.2148C113.566 25.4102 113.609 25.6602 113.695 25.9648C113.789 26.207 113.945 26.4062 114.164 26.5625C114.375 26.7188 114.656 26.7969 115.008 26.7969C115.492 26.7969 115.875 26.6641 116.156 26.3984C116.531 26.0469 116.785 25.8438 116.918 25.7891C117.004 25.75 117.102 25.7422 117.211 25.7656C117.328 25.7891 117.449 25.7969 117.574 25.7891C117.715 25.7891 117.848 25.6289 117.973 25.3086C118.098 24.9883 118.184 24.8164 118.23 24.793C118.277 24.7617 118.332 24.7539 118.395 24.7695C118.574 24.832 118.699 24.8633 118.77 24.8633C118.902 24.8633 119.02 24.7734 119.121 24.5938C119.16 24.5312 119.227 24.3672 119.32 24.1016C119.398 23.875 119.461 23.7617 119.508 23.7617C119.57 23.7617 119.602 23.832 119.602 23.9727C119.602 24.5039 119.449 25.0195 119.145 25.5195C118.824 26.0195 118.5 26.2695 118.172 26.2695C117.961 26.5742 117.84 26.7422 117.809 26.7734C117.598 27.0156 117.406 27.1367 117.234 27.1367C117.062 27.1055 116.918 27.0898 116.801 27.0898C116.691 27.0898 116.57 27.1211 116.438 27.1836C116.281 27.2461 115.984 27.5664 115.547 28.1445C115.109 28.7148 114.637 29 114.129 29C113.574 29 113.168 28.7539 112.91 28.2617C112.668 27.7773 112.547 27.1797 112.547 26.4688C112.68 25.8906 112.824 25.4219 112.98 25.0625C113.129 24.6875 113.277 24.5 113.426 24.5C113.457 24.5 113.5 24.5312 113.555 24.5938Z" fill="#18948A"/>
<path d="M140.194 33.2941C137.15 32.156 134.651 30.4073 132.753 27.8164C130.965 25.3892 130.008 22.4497 130.024 19.4349C129.997 13.4854 130.024 7.53581 130 1.58625C130 0.865813 130.169 0.613826 130.944 0.615517C141.204 0.640885 151.463 0.615519 161.723 0.640887C169.524 0.661181 175.75 6.77478 175.971 14.561C176.005 15.7279 176.005 15.7313 174.83 15.7313H167.135C166.851 15.7099 166.566 15.7611 166.308 15.8801C166.524 15.9765 166.742 16.0746 166.961 16.1676C171.828 18.2308 174.727 21.8939 175.768 27.0469C175.914 27.7946 175.985 28.5548 175.981 29.3165C175.997 35.3793 175.981 41.4405 176 47.5034C176 48.1545 175.821 48.3862 175.143 48.3845C164.657 48.3608 154.172 48.4166 143.687 48.3354C136.866 48.283 130.883 42.6835 130.157 35.885C129.878 33.2924 129.878 33.2924 132.43 33.2941H140.194ZM132.753 35.8309C132.731 36.0059 132.719 36.1821 132.718 36.3585C132.731 36.5267 132.76 36.6932 132.806 36.8557C134.116 41.6046 137.152 44.5777 141.962 45.6803C142.757 45.8572 143.57 45.9457 144.385 45.9441C153.771 45.961 163.157 45.9661 172.543 45.9593C173.098 45.9593 173.514 45.9509 173.511 45.1831C173.482 39.7409 173.575 34.297 173.455 28.8565C173.363 24.7892 171.375 21.6757 167.996 19.4569C166.353 18.3979 164.465 17.781 162.515 17.666C160.982 17.551 161.121 17.8824 161.109 16.1151C161.109 15.4945 161.155 14.8688 161.097 14.2549C161.026 13.5023 161.309 13.2909 162.049 13.2993C165.488 13.3332 168.928 13.3129 172.366 13.3129H173.36C173.291 12.8343 173.264 12.4673 173.191 12.129C172.144 7.57809 167.948 3.02883 161.243 3.05758C151.997 3.09647 142.751 3.07449 133.507 3.05758C132.75 3.05758 132.493 3.26052 132.493 4.05368C132.527 9.15765 132.493 14.2616 132.525 19.3656C132.52 20.2898 132.615 21.2119 132.809 22.1154C133.391 24.6811 134.821 26.9758 136.868 28.629C138.914 30.2823 141.458 31.1977 144.089 31.2275C144.899 31.2376 145.104 31.5116 145.058 32.254C145 33.0986 145 33.9462 145.058 34.7908C145.119 35.584 144.823 35.8055 144.055 35.7903C140.673 35.7548 137.291 35.7734 133.908 35.7768C133.551 35.7818 133.191 35.814 132.753 35.8309Z" fill="#18948A"/>
<path d="M150.112 27.6962L149.502 26.0051C149.333 26.3433 149.223 26.5615 149.11 26.7712C148.899 27.1884 148.593 27.5502 148.217 27.8275C147.84 28.1049 147.404 28.2899 146.943 28.3676C145.524 28.6298 145.323 28.4336 145.357 27.0045C145.367 26.5412 145.457 26.2266 146 26.252C146.571 26.2773 146.607 25.8934 146.607 25.4639C146.607 24.0264 146.622 22.5889 146.607 21.1497C146.598 20.6119 146.49 20.3971 147.337 20.3971C149.365 20.3971 149.784 20.0639 149.957 22.5161C150.13 24.9683 150.253 25.8799 150.363 27.6455L150.112 27.6962Z" fill="#18948A"/>
<path d="M156.404 24.4306C156.404 24.2344 156.418 24.0365 156.404 23.8404C156.212 21.2055 158.282 20.2669 160.167 20.3921C160.617 20.4225 160.81 20.5696 160.844 21.0381C160.932 22.2845 160.9 22.3115 159.66 22.5601C159.443 22.6024 159.161 22.9694 159.139 23.2079C159.083 23.9665 159.075 24.728 159.117 25.4876C159.202 27.5694 157.172 28.7008 155.048 28.3727C154.913 28.3507 154.745 28.0717 154.72 27.8941C154.648 27.5341 154.648 27.1633 154.72 26.8033C154.764 26.6793 154.836 26.5673 154.93 26.476C155.025 26.3847 155.139 26.3167 155.265 26.2773C156.403 26.1082 156.406 26.1336 156.411 24.9396V24.4323L156.404 24.4306Z" fill="#18948A"/>
<path d="M141.553 24.3612C141.553 23.3211 141.57 22.2794 141.545 21.241C141.53 20.6525 141.699 20.3717 142.353 20.3869C144.839 20.4444 144.354 20.1062 144.383 22.3487C144.411 24.1194 144.383 25.89 144.396 27.6624C144.396 28.185 144.249 28.4352 143.682 28.42C141.108 28.3507 141.601 28.7802 141.547 26.3906C141.541 25.7108 141.553 25.036 141.553 24.3612Z" fill="#18948A"/>
<path d="M153.887 24.4072C153.887 25.5048 153.873 26.6057 153.887 27.7016C153.887 28.1887 153.729 28.4288 153.21 28.417C150.673 28.3645 151.135 28.7467 151.101 26.4332C151.076 24.715 151.111 22.9984 151.084 21.2802C151.074 20.6477 151.254 20.367 151.945 20.3856C154.238 20.4498 153.844 20.1133 153.883 22.2949C153.897 22.9984 153.887 23.7037 153.887 24.4072Z" fill="#18948A"/>
<path fill-rule="evenodd" clip-rule="evenodd" d="M161.623 23.4143C161.621 23.717 161.619 24.0196 161.619 24.3222C161.62 25.0268 161.62 25.7298 161.619 26.4311C161.619 28.417 161.619 28.417 163.53 28.4262C163.561 28.4264 163.591 28.4265 163.623 28.4267C164.33 28.4301 164.479 28.1527 164.469 27.5303C164.455 26.6193 164.458 25.7078 164.461 24.7964C164.463 23.9921 164.465 23.1879 164.457 22.3841C164.445 21.225 164.529 20.74 164.328 20.538C164.125 20.3333 163.629 20.4192 162.444 20.3885C161.829 20.3716 161.583 20.5661 161.607 21.202C161.635 21.9383 161.629 22.6763 161.623 23.4143ZM163.06 26.0674C162.806 26.0674 162.652 25.8797 162.652 25.6887L162.65 23.0944C162.65 22.9436 162.806 22.7697 163.06 22.7697C163.314 22.7697 163.483 22.9501 163.483 23.1079C163.483 23.1079 163.483 24.6808 163.483 25.6887C163.483 25.8983 163.314 26.0674 163.06 26.0674Z" fill="#18948A"/>
</svg>
