<svg width="40" height="41" viewBox="0 0 40 41" fill="none" xmlns="http://www.w3.org/2000/svg">
<g id="person-circle">
<g id="Union">
<path d="M27.5 15.5C27.5 19.6421 24.1421 23 20 23C15.8579 23 12.5 19.6421 12.5 15.5C12.5 11.3579 15.8579 8 20 8C24.1421 8 27.5 11.3579 27.5 15.5Z" fill="#18948A"/>
<path fill-rule="evenodd" clip-rule="evenodd" d="M0 20.5C0 9.45431 8.95431 0.5 20 0.5C31.0457 0.5 40 9.45431 40 20.5C40 31.5457 31.0457 40.5 20 40.5C8.95431 40.5 0 31.5457 0 20.5ZM20 3C10.335 3 2.5 10.835 2.5 20.5C2.5 24.6336 3.93314 28.4324 6.32965 31.4267C8.10732 28.5631 12.0116 25.5 20 25.5C27.9884 25.5 31.8927 28.5631 33.6704 31.4268C36.0669 28.4324 37.5 24.6336 37.5 20.5C37.5 10.835 29.665 3 20 3Z" fill="#18948A"/>
</g>
</g>
</svg>
