<svg width="16" height="16" viewBox="0 0 16 16" fill="none" xmlns="http://www.w3.org/2000/svg">
<g id="save2">
<path id="Vector 327 (Stroke)" d="M2 1.00009C1.44772 1.00009 1 1.44781 1 2.00009V14.0001C1 14.5524 1.44772 15.0001 2 15.0001H14C14.5523 15.0001 15 14.5524 15 14.0001V2.00009C15 1.44781 14.5523 1.00009 14 1.00009H9.5C8.94771 1.00009 8.5 1.44781 8.5 2.00009V6.50009H10.5C10.7022 6.50009 10.8845 6.62191 10.9619 6.80875C11.0393 6.99559 10.9966 7.21065 10.8536 7.35364L8.35355 9.85365C8.15829 10.0489 7.84171 10.0489 7.64645 9.85365L5.14645 7.35364C5.00345 7.21065 4.96067 6.99559 5.03806 6.80875C5.11545 6.62191 5.29777 6.50009 5.5 6.50009H7.5V2.00009C7.5 0.895522 8.39543 9.15527e-05 9.5 9.15527e-05H14C15.1046 9.15527e-05 16 0.895523 16 2.00009V14.0001C16 15.1047 15.1046 16.0001 14 16.0001H2C0.89543 16.0001 0 15.1047 0 14.0001V2.00009C0 0.895522 0.895431 9.15527e-05 2 9.15527e-05H4.5C4.77614 9.15527e-05 5 0.223949 5 0.500092C5 0.776234 4.77614 1.00009 4.5 1.00009H2Z" fill="white"/>
</g>
</svg>
